<?xml version="1.0"?>
<svg xmlns="http://www.w3.org/2000/svg" xmlns:xlink="http://www.w3.org/1999/xlink" version="1.1" id="Layer_1" x="0px" y="0px" viewBox="0 0 512.001 512.001" style="enable-background:new 0 0 512.001 512.001;" xml:space="preserve" width="512px" height="512px" class=""><g><g>
	<path style="fill:#3F51B5" d="M181.32,110.393l-12.512-12.512c23.255-23.255,54.221-36.062,87.194-36.062   s63.937,12.807,87.193,36.062l-12.514,12.512c-19.913-19.913-46.434-30.88-74.679-30.88   C227.755,79.514,201.233,90.481,181.32,110.393z" data-original="#CCCCCC" class="" data-old_color="#CCCCCC"/>
	<path style="fill:#3F51B5" d="M304.57,136.502c-26.781-26.783-70.359-26.781-97.141,0l-12.512-12.512   c33.682-33.683,88.487-33.682,122.169,0L304.57,136.502z" data-original="#CCCCCC" class="" data-old_color="#CCCCCC"/>
	<path style="fill:#3F51B5" d="M278.464,162.611c-12.386-12.386-32.541-12.386-44.927,0l-12.512-12.512   c19.285-19.286,50.667-19.285,69.951,0L278.464,162.611z" data-original="#CCCCCC" class="" data-old_color="#CCCCCC"/>
</g><path style="fill:#3F51B5" d="M486.051,197.874H25.948C11.617,197.874,0,209.492,0,223.822v200.412  c0,14.33,11.617,25.948,25.948,25.948h460.104c14.33,0,25.949-11.617,25.949-25.948V223.822  C512,209.492,500.382,197.874,486.051,197.874z" data-original="#5FC9ED" class="" data-old_color="#5FC9ED"/><g>
	<rect x="123.649" y="374.546" style="fill:#CECEFF" width="41.539" height="38.717" data-original="#F2F2F2" class="active-path" data-old_color="#F2F2F2"/>
	<rect x="208.567" y="329.928" style="fill:#CECEFF" width="41.539" height="32.818" data-original="#F2F2F2" class="active-path" data-old_color="#F2F2F2"/>
	<rect x="176.974" y="285.31" style="fill:#CECEFF" width="41.539" height="32.818" data-original="#F2F2F2" class="active-path" data-old_color="#F2F2F2"/>
	<rect x="230.31" y="285.31" style="fill:#CECEFF" width="41.539" height="32.818" data-original="#F2F2F2" class="active-path" data-old_color="#F2F2F2"/>
	<rect x="101.895" y="329.928" style="fill:#CECEFF" width="41.539" height="32.818" data-original="#F2F2F2" class="active-path" data-old_color="#F2F2F2"/>
	<rect x="123.649" y="285.31" style="fill:#CECEFF" width="41.539" height="32.818" data-original="#F2F2F2" class="active-path" data-old_color="#F2F2F2"/>
	<rect x="155.231" y="329.928" style="fill:#CECEFF" width="41.539" height="32.818" data-original="#F2F2F2" class="active-path" data-old_color="#F2F2F2"/>
	<rect x="390.319" y="374.546" style="fill:#CECEFF" width="41.539" height="38.717" data-original="#F2F2F2" class="active-path" data-old_color="#F2F2F2"/>
	<rect x="368.564" y="234.793" style="fill:#CECEFF" width="41.539" height="38.717" data-original="#F2F2F2" class="active-path" data-old_color="#F2F2F2"/>
	<rect x="315.228" y="329.928" style="fill:#CECEFF" width="41.539" height="32.818" data-original="#F2F2F2" class="active-path" data-old_color="#F2F2F2"/>
	<rect x="283.646" y="285.31" style="fill:#CECEFF" width="41.539" height="32.818" data-original="#F2F2F2" class="active-path" data-old_color="#F2F2F2"/>
	<rect x="336.982" y="285.31" style="fill:#CECEFF" width="41.539" height="32.818" data-original="#F2F2F2" class="active-path" data-old_color="#F2F2F2"/>
	<rect x="261.903" y="329.928" style="fill:#CECEFF" width="41.539" height="32.818" data-original="#F2F2F2" class="active-path" data-old_color="#F2F2F2"/>
	<rect x="443.643" y="374.546" style="fill:#CECEFF" width="31.431" height="38.717" data-original="#F2F2F2" class="active-path" data-old_color="#F2F2F2"/>
	<polygon style="fill:#CECEFF" points="111.849,374.542 36.924,374.542 36.924,362.745 90.101,362.745 90.101,329.926    36.924,329.926 36.924,318.129 111.849,318.129 111.849,285.312 36.924,285.312 36.924,273.514 90.101,273.514 90.101,234.798    36.924,234.798 36.924,413.259 111.849,413.259  " data-original="#F2F2F2" class="active-path" data-old_color="#F2F2F2"/>
	<rect x="208.567" y="234.793" style="fill:#CECEFF" width="41.539" height="38.717" data-original="#F2F2F2" class="active-path" data-old_color="#F2F2F2"/>
	<rect x="155.231" y="234.793" style="fill:#CECEFF" width="41.539" height="38.717" data-original="#F2F2F2" class="active-path" data-old_color="#F2F2F2"/>
	<rect x="101.895" y="234.793" style="fill:#CECEFF" width="41.539" height="38.717" data-original="#F2F2F2" class="active-path" data-old_color="#F2F2F2"/>
	<rect x="421.9" y="234.793" style="fill:#CECEFF" width="53.183" height="38.717" data-original="#F2F2F2" class="active-path" data-old_color="#F2F2F2"/>
	<path style="fill:#CECEFF" d="M443.646,324.028c0,3.257-2.641,5.899-5.899,5.899h-15.849v32.818h53.178v-77.433h-31.431V324.028z" data-original="#F2F2F2" class="active-path" data-old_color="#F2F2F2"/>
	<rect x="315.228" y="234.793" style="fill:#CECEFF" width="41.539" height="38.717" data-original="#F2F2F2" class="active-path" data-old_color="#F2F2F2"/>
	<rect x="336.982" y="374.546" style="fill:#CECEFF" width="41.539" height="38.717" data-original="#F2F2F2" class="active-path" data-old_color="#F2F2F2"/>
	<rect x="368.564" y="329.928" style="fill:#CECEFF" width="41.539" height="32.818" data-original="#F2F2F2" class="active-path" data-old_color="#F2F2F2"/>
	<rect x="176.974" y="374.546" style="fill:#CECEFF" width="148.2" height="38.717" data-original="#F2F2F2" class="active-path" data-old_color="#F2F2F2"/>
	<rect x="261.903" y="234.793" style="fill:#CECEFF" width="41.539" height="38.717" data-original="#F2F2F2" class="active-path" data-old_color="#F2F2F2"/>
	<rect x="390.319" y="285.31" style="fill:#CECEFF" width="41.539" height="32.818" data-original="#F2F2F2" class="active-path" data-old_color="#F2F2F2"/>
</g></g> </svg>
